<svg width="22" height="22" viewBox="0 0 22 22" fill="none" xmlns="http://www.w3.org/2000/svg">
<path d="M10.9731 21.5973C10.0044 21.5973 9.0708 21.4723 8.17236 21.2223C7.28174 20.9723 6.4458 20.6207 5.66455 20.1676C4.89111 19.7067 4.18408 19.1598 3.54346 18.527C2.91064 17.8864 2.36377 17.1793 1.90283 16.4059C1.44971 15.6246 1.09814 14.7887 0.848145 13.8981C0.598145 12.9996 0.473145 12.066 0.473145 11.0973C0.473145 10.1285 0.598145 9.19885 0.848145 8.30823C1.09814 7.40979 1.44971 6.57385 1.90283 5.80042C2.36377 5.01917 2.91064 4.31213 3.54346 3.67932C4.18408 3.0387 4.89111 2.49182 5.66455 2.0387C6.4458 1.57776 7.28174 1.22229 8.17236 0.97229C9.0708 0.72229 10.0044 0.59729 10.9731 0.59729C11.9419 0.59729 12.8716 0.72229 13.7622 0.97229C14.6606 1.22229 15.4966 1.57776 16.27 2.0387C17.0513 2.49182 17.7583 3.0387 18.3911 3.67932C19.0317 4.31213 19.5786 5.01917 20.0317 5.80042C20.4927 6.57385 20.8481 7.40979 21.0981 8.30823C21.3481 9.19885 21.4731 10.1285 21.4731 11.0973C21.4731 12.066 21.3481 12.9996 21.0981 13.8981C20.8481 14.7887 20.4927 15.6246 20.0317 16.4059C19.5786 17.1793 19.0317 17.8864 18.3911 18.527C17.7583 19.1598 17.0513 19.7067 16.27 20.1676C15.4966 20.6207 14.6606 20.9723 13.7622 21.2223C12.8716 21.4723 11.9419 21.5973 10.9731 21.5973ZM10.9731 2.09729C9.73096 2.09729 8.56299 2.33557 7.46924 2.81213C6.3833 3.28088 5.43018 3.92542 4.60986 4.74573C3.79736 5.55823 3.15283 6.51135 2.67627 7.6051C2.20752 8.69104 1.97314 9.8551 1.97314 11.0973C1.97314 12.3395 2.20752 13.5074 2.67627 14.6012C3.15283 15.6871 3.79736 16.6403 4.60986 17.4606C5.43018 18.2731 6.3833 18.9176 7.46924 19.3942C8.56299 19.8629 9.73096 20.0973 10.9731 20.0973C12.2153 20.0973 13.3794 19.8629 14.4653 19.3942C15.5591 18.9176 16.5122 18.2731 17.3247 17.4606C18.145 16.6403 18.7896 15.6871 19.2583 14.6012C19.7349 13.5074 19.9731 12.3395 19.9731 11.0973C19.9731 9.8551 19.7349 8.69104 19.2583 7.6051C18.7896 6.51135 18.145 5.55823 17.3247 4.74573C16.5122 3.92542 15.5591 3.28088 14.4653 2.81213C13.3794 2.33557 12.2153 2.09729 10.9731 2.09729ZM10.9731 11.0973V5.09729H9.47314V12.5973H15.4731V11.0973H10.9731Z" fill="#323130"/>
</svg>
