<svg width="25" height="25" viewBox="0 0 25 25" fill="none" xmlns="http://www.w3.org/2000/svg">
<path d="M21.2236 20.1396C21.4268 20.1396 21.6025 20.2139 21.751 20.3623C21.8994 20.5107 21.9736 20.6865 21.9736 20.8896C21.9736 21.0928 21.8994 21.2686 21.751 21.417C21.6025 21.5654 21.4268 21.6396 21.2236 21.6396H12.2236C12.0205 21.6396 11.8447 21.5654 11.6963 21.417C11.5479 21.2686 11.4736 21.0928 11.4736 20.8896C11.4736 20.6865 11.5479 20.5107 11.6963 20.3623C11.8447 20.2139 12.0205 20.1396 12.2236 20.1396H21.2236ZM19.7236 23.1396C19.9268 23.1396 20.1025 23.2139 20.251 23.3623C20.3994 23.5107 20.4736 23.6865 20.4736 23.8896C20.4736 24.0928 20.3994 24.2686 20.251 24.417C20.1025 24.5654 19.9268 24.6396 19.7236 24.6396H13.7236C13.5205 24.6396 13.3447 24.5654 13.1963 24.417C13.0479 24.2686 12.9736 24.0928 12.9736 23.8896C12.9736 23.6865 13.0479 23.5107 13.1963 23.3623C13.3447 23.2139 13.5205 23.1396 13.7236 23.1396H19.7236ZM22.5127 17.1396H24.9736V18.6396H7.2666C7.18848 19.1396 7.12988 19.6396 7.09082 20.1396C7.05957 20.6396 7.03223 21.1396 7.00879 21.6396C6.99316 22.1318 6.98535 22.6279 6.98535 23.1279C6.98535 23.6279 6.98145 24.1318 6.97363 24.6396H2.47363V22.3779C2.47363 21.7451 2.49707 21.1201 2.54395 20.5029C2.59082 19.8857 2.65723 19.2646 2.74316 18.6396H0.973633V17.1396H2.98926C3.37988 15.2256 3.96973 13.3857 4.75879 11.6201C5.54785 9.85449 6.52441 8.18652 7.68848 6.61621C6.54785 6.57715 5.50098 6.33887 4.54785 5.90137C3.59473 5.45605 2.72363 4.83105 1.93457 4.02637L1.40723 3.4873L1.95801 2.97168C2.77051 2.21387 3.66113 1.63965 4.62988 1.24902C5.59863 0.850586 6.6416 0.651367 7.75879 0.651367C8.97754 0.651367 10.0947 0.881836 11.1104 1.34277C12.126 1.7959 13.0596 2.44824 13.9111 3.2998C14.5127 3.31543 15.0947 3.40918 15.6572 3.58105C16.2197 3.75293 16.7432 3.9873 17.2275 4.28418C17.7119 4.58105 18.1533 4.93262 18.5518 5.33887C18.9502 5.74512 19.29 6.19434 19.5713 6.68652C19.8604 7.17871 20.083 7.70605 20.2393 8.26855C20.3955 8.83105 20.4736 9.41699 20.4736 10.0264V10.7764H19.7236C18.6924 10.7764 17.7236 10.5576 16.8174 10.1201C15.9189 9.6748 15.1455 9.05371 14.4971 8.25684C13.9033 9.33496 13.1572 10.2217 12.2588 10.917C11.3604 11.6123 10.3096 12.1006 9.10645 12.3818C8.77051 13.1553 8.46973 13.9365 8.2041 14.7256C7.94629 15.5146 7.72754 16.3193 7.54785 17.1396H10.9346C11.1064 16.4834 11.376 15.8818 11.7432 15.335C12.1104 14.7803 12.5479 14.3037 13.0557 13.9053C13.5713 13.5068 14.1416 13.1982 14.7666 12.9795C15.3916 12.7529 16.0439 12.6396 16.7236 12.6396C17.4033 12.6396 18.0557 12.7529 18.6807 12.9795C19.3057 13.1982 19.8721 13.5068 20.3799 13.9053C20.8955 14.3037 21.3369 14.7803 21.7041 15.335C22.0713 15.8818 22.3408 16.4834 22.5127 17.1396ZM15.4814 5.09277C15.4346 5.60059 15.333 6.11621 15.1768 6.63965C15.5752 7.32715 16.0986 7.89746 16.7471 8.35059C17.4033 8.80371 18.126 9.09277 18.915 9.21777C18.8369 8.74121 18.7002 8.29199 18.5049 7.87012C18.3096 7.44043 18.0596 7.0459 17.7549 6.68652C17.458 6.32715 17.1182 6.01465 16.7354 5.74902C16.3525 5.47559 15.9346 5.25684 15.4814 5.09277ZM14.0049 5.1748C13.208 5.2373 12.4541 5.43652 11.7432 5.77246C11.04 6.10059 10.4111 6.53027 9.85645 7.06152C9.30957 7.58496 8.85254 8.19434 8.48535 8.88965C8.12598 9.58496 7.8916 10.3232 7.78223 11.1045C8.44629 11.0498 9.0752 10.9092 9.66895 10.6826C10.2627 10.4482 10.8057 10.1436 11.2979 9.76855C11.79 9.39355 12.2275 8.95605 12.6104 8.45605C12.9932 7.94824 13.3096 7.38574 13.5596 6.76855C13.6689 6.51074 13.7588 6.24902 13.8291 5.9834C13.9072 5.71777 13.9658 5.44824 14.0049 5.1748ZM3.59863 3.53418C4.22363 4.0498 4.91504 4.44434 5.67285 4.71777C6.43066 4.99121 7.21582 5.12793 8.02832 5.12793C8.78613 5.12793 9.5166 5.01074 10.2197 4.77637C10.9307 4.54199 11.5869 4.19824 12.1885 3.74512C11.5635 3.22949 10.8721 2.83496 10.1143 2.56152C9.35645 2.28809 8.57129 2.15137 7.75879 2.15137C7.00098 2.15137 6.2666 2.26855 5.55566 2.50293C4.85254 2.7373 4.2002 3.08105 3.59863 3.53418ZM7.3252 12.6162C7.2627 12.6318 7.2002 12.6396 7.1377 12.6396C7.0752 12.6396 7.0127 12.6396 6.9502 12.6396C6.8252 12.6396 6.7002 12.6396 6.5752 12.6396C6.4502 12.6318 6.3252 12.624 6.2002 12.6162V12.0654C5.78613 12.9873 5.43457 13.8936 5.14551 14.7842C4.86426 15.6748 4.63379 16.5732 4.4541 17.4795C4.28223 18.3857 4.15723 19.3076 4.0791 20.2451C4.00879 21.1748 3.97363 22.1396 3.97363 23.1396H5.47363C5.47363 22.1943 5.50488 21.2803 5.56738 20.3975C5.6377 19.5146 5.74316 18.6436 5.88379 17.7842C6.03223 16.9248 6.22363 16.0693 6.45801 15.2178C6.69238 14.3662 6.98145 13.499 7.3252 12.6162ZM12.5049 17.1396H20.9424C20.7861 16.6943 20.5674 16.2881 20.2861 15.9209C20.0049 15.5459 19.6768 15.2295 19.3018 14.9717C18.9346 14.7061 18.5322 14.5029 18.0947 14.3623C17.6572 14.2139 17.2002 14.1396 16.7236 14.1396C16.2471 14.1396 15.79 14.2139 15.3525 14.3623C14.915 14.5029 14.5088 14.7061 14.1338 14.9717C13.7666 15.2295 13.4424 15.5459 13.1611 15.9209C12.8799 16.2881 12.6611 16.6943 12.5049 17.1396Z" fill="#323130"/>
</svg>
