<svg width="361" height="264" viewBox="0 0 361 264" fill="none" xmlns="http://www.w3.org/2000/svg">
<path opacity="0.01" fill-rule="evenodd" clip-rule="evenodd" d="M0.5 0.842285H360.5V263.074H0.5V0.842285Z" fill="#FF0066" fill-opacity="0.4"/>
<mask id="mask0" mask-type="alpha" maskUnits="userSpaceOnUse" x="156" y="1" width="82" height="47">
<path fill-rule="evenodd" clip-rule="evenodd" d="M156.018 1.45837H237.403V47.4599H156.018V1.45837H156.018Z" fill="white"/>
</mask>
<g mask="url(#mask0)">
<path fill-rule="evenodd" clip-rule="evenodd" d="M226.285 24.7253C226.467 23.8357 226.643 22.9399 226.643 21.8556C226.643 13.9846 220.195 7.71232 212.299 7.71232C209.078 7.71232 206.209 8.79045 203.886 10.3941C200.647 5.21165 194.915 1.45789 188.286 1.45789C178.599 1.45789 170.721 9.32275 170.363 18.9915H170.186C162.29 18.9915 156.018 25.4461 156.018 33.311C156.018 41.1882 162.29 47.4599 170.186 47.4599H225.927C232.375 47.4599 237.403 42.4413 237.403 36.1869C237.403 29.9146 232.375 24.9071 226.285 24.7253Z" fill="#DADADA"/>
</g>
<path fill-rule="evenodd" clip-rule="evenodd" d="M231.835 45.8375L171.26 13.985C170.721 15.5954 170.544 17.2058 170.362 18.9919H170.186C162.289 18.9919 156.018 25.4459 156.018 33.3108C156.018 41.1879 162.289 47.4602 170.186 47.4602H225.927C228.074 47.4602 230.046 46.9279 231.835 45.8375Z" fill="#C8C8C8"/>
<path fill-rule="evenodd" clip-rule="evenodd" d="M223.172 57.5159L204.163 76.4912L184.947 57.3102L185.373 45.702L198.354 32.7434L223.172 57.5159Z" fill="white"/>
<path fill-rule="evenodd" clip-rule="evenodd" d="M223.172 57.5159L204.163 76.4912L184.947 57.3102L185.373 45.702L198.354 32.7434L223.172 57.5159Z" stroke="#EAEAEA"/>
<path fill-rule="evenodd" clip-rule="evenodd" d="M191.491 51.1915L185.154 57.5161L185.683 45.3936L191.491 51.1915Z" fill="#C8C8C8"/>
<path fill-rule="evenodd" clip-rule="evenodd" d="M188.991 56.8487L194.905 50.9455C195.045 50.8044 195.01 50.4889 194.834 50.3127C194.834 50.3127 194.517 50.2776 194.377 50.4181L188.463 56.322C188.322 56.4618 188.498 56.6374 188.498 56.6374C188.674 56.813 188.85 56.9892 188.991 56.8487Z" fill="#666666"/>
<path fill-rule="evenodd" clip-rule="evenodd" d="M191.105 58.9569L197.018 53.0536C197.159 52.9125 197.3 52.7727 197.124 52.5971C196.948 52.4215 196.631 52.3858 196.491 52.5263L190.577 58.4301C190.436 58.5706 190.611 58.7462 190.787 58.9218C190.963 59.098 190.963 59.098 191.105 58.9569Z" fill="#666666"/>
<path fill-rule="evenodd" clip-rule="evenodd" d="M193.216 61.065L199.13 55.1617C199.271 55.0213 199.235 54.7052 199.059 54.5296C198.883 54.3534 198.743 54.4945 198.602 54.6344L192.688 60.5382C192.547 60.6787 192.547 60.6787 192.723 60.8543C192.899 61.0299 193.075 61.2061 193.216 61.065Z" fill="#666666"/>
<path fill-rule="evenodd" clip-rule="evenodd" d="M201.135 68.9712L207.049 63.0679C207.191 62.9274 207.155 62.6114 207.155 62.6114C206.979 62.4358 206.662 62.4007 206.522 62.5405L200.608 68.4444C200.467 68.5849 200.643 68.7605 200.819 68.936C200.819 68.936 200.995 69.1122 201.135 68.9712Z" fill="#666666"/>
<path fill-rule="evenodd" clip-rule="evenodd" d="M203.248 71.0799L209.162 65.1767C209.304 65.0356 209.444 64.8951 209.18 64.6314C208.917 64.3677 208.775 64.5088 208.635 64.6493L202.721 70.5532C202.58 70.693 202.58 70.693 202.844 70.9567C203.108 71.2204 203.108 71.2204 203.248 71.0799Z" fill="#666666"/>
<path fill-rule="evenodd" clip-rule="evenodd" d="M195.997 45.6396L201.911 39.7364C202.052 39.5953 202.052 39.5953 201.788 39.3322C201.524 39.0685 201.524 39.0685 201.383 39.209L195.469 45.1129C195.328 45.2527 195.187 45.3938 195.451 45.6569C195.715 45.9206 195.856 45.7801 195.997 45.6396Z" fill="#666666"/>
<path fill-rule="evenodd" clip-rule="evenodd" d="M193.884 43.5309L199.798 37.6276C199.939 37.4871 199.762 37.3116 199.762 37.3116C199.586 37.136 199.411 36.9604 199.27 37.1002L193.357 43.0041C193.215 43.1446 193.251 43.4613 193.427 43.6368C193.427 43.6368 193.743 43.672 193.884 43.5309Z" fill="#666666"/>
<path fill-rule="evenodd" clip-rule="evenodd" d="M206.029 55.6539L211.942 49.7506C212.084 49.6096 212.084 49.6096 211.907 49.434C211.731 49.2584 211.555 49.0828 211.415 49.2233L205.501 55.1272C205.36 55.2676 205.395 55.5837 205.571 55.7593C205.747 55.9348 205.888 55.795 206.029 55.6539Z" fill="#666666"/>
<path fill-rule="evenodd" clip-rule="evenodd" d="M208.142 57.762L214.056 51.8588C214.196 51.7183 214.02 51.5427 213.844 51.3671C213.668 51.1915 213.668 51.1915 213.528 51.3314L207.614 57.2353C207.473 57.3757 207.332 57.5162 207.508 57.6918C207.684 57.8674 208 57.9031 208.142 57.762Z" fill="#666666"/>
<path fill-rule="evenodd" clip-rule="evenodd" d="M210.253 59.8707L216.167 53.9674C216.309 53.8264 216.132 53.6508 216.132 53.6508C215.956 53.4752 215.78 53.2996 215.64 53.4401L209.726 59.3433C209.584 59.4838 209.62 59.8005 209.796 59.9761C209.796 59.9761 210.112 60.0112 210.253 59.8707Z" fill="#666666"/>
<path fill-rule="evenodd" clip-rule="evenodd" d="M212.366 61.979L218.28 56.0757C218.421 55.9346 218.421 55.9346 218.157 55.6716C217.893 55.4079 217.893 55.4079 217.752 55.5484L211.838 61.4522C211.697 61.5921 211.556 61.7332 211.82 61.9962C212.084 62.2599 212.225 62.1195 212.366 61.979Z" fill="#666666"/>
<path fill-rule="evenodd" clip-rule="evenodd" d="M203.635 53.8267L209.444 48.0288L203.108 41.7035L197.299 47.5014L203.635 53.8267Z" fill="#032252"/>
<path fill-rule="evenodd" clip-rule="evenodd" d="M199.411 67.5308L205.747 61.2056L202.051 57.5159L195.715 63.8411L199.411 67.5308Z" fill="#032252"/>
<mask id="mask1" mask-type="alpha" maskUnits="userSpaceOnUse" x="71" y="237" width="220" height="11">
<path fill-rule="evenodd" clip-rule="evenodd" d="M71.041 247.92V237.18H290.28V247.92H71.041Z" fill="white"/>
</mask>
<g mask="url(#mask1)">
<path fill-rule="evenodd" clip-rule="evenodd" d="M284.906 247.92H76.4278C73.5591 247.92 71.041 245.414 71.041 242.538C71.041 239.499 73.5591 237.18 76.4278 237.18H284.906C287.952 237.18 290.281 239.499 290.281 242.538C290.281 245.414 287.952 247.92 284.906 247.92Z" fill="#EAEAEA"/>
</g>
<path fill-rule="evenodd" clip-rule="evenodd" d="M253.894 242.914C253.536 242.914 253.003 242.914 252.462 242.538C250.849 242.005 249.581 240.752 248.684 238.785C246.361 233.784 227.54 168.08 226.643 165.398C226.643 165.222 226.643 164.864 226.825 164.683C226.825 164.508 227.182 164.508 227.358 164.508H242.958C243.316 164.508 243.492 164.683 243.674 165.041L255.865 241.824C256.047 242.181 255.865 242.362 255.507 242.538C255.507 242.538 254.792 242.914 253.894 242.914ZM228.256 165.937C230.585 173.995 247.968 233.602 250.133 238.252C250.849 239.862 251.747 240.933 252.82 241.291C253.536 241.466 254.076 241.466 254.434 241.466L242.236 165.937H228.256Z" fill="#444444"/>
<path fill-rule="evenodd" clip-rule="evenodd" d="M102.769 242.914C101.871 242.914 101.155 242.538 101.155 242.538C100.797 242.362 100.622 242.181 100.797 241.824L113.171 165.041C113.171 164.683 113.529 164.508 113.705 164.508H129.305C129.662 164.508 129.838 164.508 130.02 164.683C130.02 164.864 130.196 165.222 130.02 165.398C129.305 168.08 110.301 233.784 107.978 238.785C107.081 240.752 105.826 242.005 104.382 242.538C103.842 242.914 103.302 242.914 102.769 242.914ZM102.229 241.466C103.126 241.648 105.097 241.466 106.723 238.252C108.871 233.602 126.078 173.995 128.407 165.937H114.427L102.229 241.466Z" fill="#444444"/>
<path fill-rule="evenodd" clip-rule="evenodd" d="M178.422 169.872C138.632 169.872 105.649 167.547 97.5766 164.508H95.7812V168.08C95.7812 171.852 132.707 174.891 178.422 174.891C223.954 174.891 260.88 171.852 260.88 168.08V164.508H259.085C251.206 167.547 218.047 169.872 178.422 169.872Z" fill="#444444"/>
<path fill-rule="evenodd" clip-rule="evenodd" d="M260.881 164.508C260.881 168.262 223.955 171.313 178.422 171.313C132.707 171.313 95.7812 168.262 95.7812 164.508C95.7812 160.754 132.707 157.696 178.422 157.696C223.955 157.696 260.881 160.754 260.881 164.508Z" fill="#999999"/>
<path fill-rule="evenodd" clip-rule="evenodd" d="M170.004 164.683H171.078V163.432H170.004V164.683Z" fill="#C8C8C8"/>
<path fill-rule="evenodd" clip-rule="evenodd" d="M171.077 164.865C171.259 164.683 171.077 164.508 170.901 164.508H138.634C138.276 164.508 137.918 164.683 137.736 164.865L135.395 167.365C135.213 167.547 135.213 167.723 135.571 167.723H167.838C168.02 167.723 168.378 167.547 168.554 167.365L171.077 164.865Z" fill="#C8C8C8"/>
<path fill-rule="evenodd" clip-rule="evenodd" d="M171.077 163.793C171.259 163.436 171.077 163.436 170.901 163.436H138.634C138.276 163.436 137.918 163.436 137.736 163.793L135.395 166.294C135.213 166.469 135.213 166.651 135.571 166.651H167.838C168.02 166.651 168.378 166.469 168.554 166.294L171.077 163.793Z" fill="#FBFBFB"/>
<path fill-rule="evenodd" clip-rule="evenodd" d="M196.885 163.436H227.54V162.543H196.885V163.436Z" fill="#FBFBFB"/>
<path fill-rule="evenodd" clip-rule="evenodd" d="M221.268 160.397C221.268 160.397 222.524 160.397 223.779 160.929L225.744 161.825L227.181 162.358C227.181 162.358 228.431 162.898 226.466 162.898H221.626H221.268H197.6C197.6 162.898 195.806 162.898 197.6 162.182L199.748 161.286C199.748 161.286 201.732 160.397 203.703 160.397H221.268Z" fill="#A6A6A6"/>
<path fill-rule="evenodd" clip-rule="evenodd" d="M207.463 160.572H216.776V150.546H207.463V160.572Z" fill="#C8C8C8"/>
<path fill-rule="evenodd" clip-rule="evenodd" d="M252.462 97.9143C252.462 97.9143 256.405 97.9143 256.405 102.037V146.956C256.405 146.956 256.405 150.903 252.462 150.903H171.975C171.975 150.903 167.838 150.903 167.838 146.956V102.037C167.838 102.037 167.838 97.9143 171.975 97.9143H252.462Z" fill="#A6A6A6"/>
<path fill-rule="evenodd" clip-rule="evenodd" d="M251.389 100.966C251.389 100.966 253.179 100.966 253.179 102.576V146.241C253.179 146.241 253.179 147.863 251.389 147.863H172.867C172.867 147.863 171.26 147.863 171.26 146.241V102.576C171.26 102.576 171.26 100.966 172.867 100.966H241.345H251.389Z" fill="white"/>
<path fill-rule="evenodd" clip-rule="evenodd" d="M201.448 115.718C201.448 116.614 200.732 117.329 199.822 117.329H183.154C182.438 117.329 181.717 116.614 181.717 115.718V114.647C181.717 113.751 182.438 113.036 183.154 113.036H199.822C200.732 113.036 201.448 113.751 201.448 114.647V115.718Z" fill="#002050"/>
<path fill-rule="evenodd" clip-rule="evenodd" d="M216.672 121.969C216.672 122.859 215.956 123.592 215.058 123.592H183.154C182.438 123.592 181.717 122.859 181.717 121.969V120.716C181.717 119.82 182.438 119.106 183.154 119.106H215.058C215.956 119.106 216.672 119.82 216.672 120.716V121.969Z" fill="#002050"/>
<path fill-rule="evenodd" clip-rule="evenodd" d="M236.131 127.859C236.131 128.749 235.409 129.463 234.694 129.463H202.79C201.892 129.463 201.176 128.749 201.176 127.859V126.787C201.176 125.891 201.892 125.176 202.79 125.176H234.694C235.409 125.176 236.131 125.891 236.131 126.787V127.859Z" fill="#002050"/>
<path opacity="0.99" fill-rule="evenodd" clip-rule="evenodd" d="M243.828 133.929C243.828 134.818 243.112 135.551 242.22 135.551H202.789C201.892 135.551 201.176 134.818 201.176 133.929V132.676C201.176 131.78 201.892 131.246 202.789 131.246H242.22C243.112 131.246 243.828 131.78 243.828 132.676V133.929Z" fill="#002050"/>
<path fill-rule="evenodd" clip-rule="evenodd" d="M171.794 101.323C171.26 101.862 171.26 102.576 171.26 102.576V146.241C171.26 147.864 172.867 147.864 172.867 147.864H251.389C251.923 147.864 252.281 147.689 252.463 147.507L231.659 135.694H203.527C202.63 135.694 201.914 134.962 201.914 134.071V132.818C201.914 131.923 202.63 131.39 203.527 131.39H224.138L221.269 129.597H203.527C202.63 129.597 201.914 128.883 201.914 127.993V126.921C201.914 126.025 202.63 125.311 203.527 125.311H213.736L210.69 123.7H184.155C183.439 123.7 182.717 122.968 182.717 122.078V120.824C182.717 119.928 183.439 119.214 184.155 119.214H203.345L200.288 117.61H184.155C183.439 117.61 182.717 116.895 182.717 115.999V114.927C182.717 114.031 183.439 113.317 184.155 113.317H192.762L171.794 101.323Z" fill="#F4F4F4"/>
<path fill-rule="evenodd" clip-rule="evenodd" d="M192.761 113.317H184.154C183.438 113.317 182.717 114.031 182.717 114.927V115.999C182.717 116.895 183.438 117.61 184.154 117.61H200.287L192.761 113.317Z" fill="#002050"/>
<path fill-rule="evenodd" clip-rule="evenodd" d="M203.345 119.214H184.154C183.438 119.214 182.717 119.928 182.717 120.824V122.078C182.717 122.968 183.438 123.7 184.154 123.7H210.69L203.345 119.214Z" fill="#002050"/>
<path fill-rule="evenodd" clip-rule="evenodd" d="M213.736 125.31H203.527C202.63 125.31 201.914 126.025 201.914 126.921V127.993C201.914 128.883 202.63 129.597 203.527 129.597H221.269L213.736 125.31Z" fill="#032252"/>
<path fill-rule="evenodd" clip-rule="evenodd" d="M224.138 131.39H203.527C202.63 131.39 201.914 131.905 201.914 132.771V133.983C201.914 134.843 202.63 135.551 203.527 135.551H231.659L224.138 131.39Z" fill="#032252"/>
<path fill-rule="evenodd" clip-rule="evenodd" d="M158.704 66.605V65.533C158.704 62.4939 156.375 60.1688 153.318 60.1688C152.244 60.1688 150.989 60.5261 150.091 61.2408C149.018 59.2786 146.689 57.832 144.183 57.832C140.605 57.832 137.56 60.7079 137.366 64.4617C134.321 64.4617 131.992 66.9617 131.992 69.8259C131.992 72.8773 134.321 75.3841 137.366 75.3841H158.528C161.033 75.3841 162.822 73.4164 162.822 70.9095C162.822 68.5721 161.033 66.605 158.704 66.605Z" fill="#D0D0D0"/>
<path fill-rule="evenodd" clip-rule="evenodd" d="M263.386 12.7377V11.8419C263.386 9.32278 261.415 7.35564 258.91 7.35564C257.837 7.35564 256.939 7.71235 256.047 8.25142C255.149 6.46479 253.178 5.39343 251.207 5.39343C247.968 5.39343 245.463 7.8941 245.463 10.9455H245.281C242.775 10.9455 240.805 13.095 240.805 15.5957C240.805 18.0957 242.775 20.0641 245.281 20.0641H263.21C265.175 20.0641 266.983 18.4592 266.983 16.4915C266.983 14.5237 265.357 12.9133 263.386 12.7377Z" fill="#D0D0D0"/>
<path fill-rule="evenodd" clip-rule="evenodd" d="M125.545 110.265L125.363 110.083C125.363 110.083 125.545 110.083 125.545 110.265Z" fill="#F4F4F4"/>
<path fill-rule="evenodd" clip-rule="evenodd" d="M139.882 106.862C139.349 106.687 133.781 105.434 133.065 104.719C132.707 104.362 132.35 104.186 132.168 104.004C130.736 106.33 128.764 107.226 126.976 107.759C125.005 108.115 123.215 107.759 123.033 107.759H122.857L125.363 110.084L125.545 110.265C126.078 110.799 126.976 111.706 127.873 112.602C128.764 113.317 129.48 114.031 129.662 114.213C130.378 115.284 128.407 115.46 128.407 115.46C128.407 115.46 126.26 115.284 124.828 115.817C123.931 116.174 123.391 116.713 123.573 117.428C123.749 118.324 124.828 119.214 126.078 119.928C126.794 120.467 127.515 120.824 128.049 121.006C128.764 121.363 129.122 121.539 129.122 121.539C129.122 121.539 131.81 124.414 131.276 126.921L129.839 127.812L131.634 132.637C131.634 132.637 143.65 129.597 143.286 128.883C143.11 127.454 141.138 123.15 141.138 123.15C142.212 122.253 143.11 121.539 143.65 121.006C146.33 119.039 145.257 117.785 145.257 117.785L139.707 110.084C142.212 107.044 140.422 106.862 139.882 106.862Z" fill="#EAEAEA"/>
<path fill-rule="evenodd" clip-rule="evenodd" d="M122.857 107.759L125.363 110.083L125.545 110.265C126.078 110.799 126.976 111.706 127.873 112.602C127.515 111.531 126.976 109.726 126.976 107.759C125.005 108.116 123.215 107.759 123.033 107.759H122.857Z" fill="#D0D0D0"/>
<path fill-rule="evenodd" clip-rule="evenodd" d="M124.83 115.817C123.932 116.175 123.392 116.713 123.574 117.428C123.75 118.323 124.83 119.214 126.079 119.928C126.795 120.467 127.517 120.824 128.051 121.006C126.977 120.11 124.29 117.609 124.83 115.817Z" fill="#D0D0D0"/>
<path fill-rule="evenodd" clip-rule="evenodd" d="M134.68 127.278C135.929 127.636 139.884 126.201 141.679 124.415C141.679 123.7 141.321 123.343 141.14 123.15C139.35 124.596 137.185 126.201 134.68 127.278Z" fill="#D0D0D0"/>
<path fill-rule="evenodd" clip-rule="evenodd" d="M141.678 112.602L139.883 113.856C140.065 114.031 141.32 114.212 142.751 114.212L141.678 112.602Z" fill="#FBFBFB"/>
<path fill-rule="evenodd" clip-rule="evenodd" d="M133.424 107.759C133.242 107.759 133.242 107.941 133.242 107.941C133.242 108.297 133.242 108.655 133.606 108.83C133.782 109.012 133.782 109.012 133.964 109.012C134.322 109.188 134.68 109.012 134.856 108.655C135.038 108.297 135.038 107.759 134.68 107.583C134.322 107.226 133.606 107.226 133.424 107.759Z" fill="#444444"/>
<path fill-rule="evenodd" clip-rule="evenodd" d="M127.334 93.4398L113.887 100.433C112.456 101.323 111.2 102.219 110.127 103.648C108.871 104.901 107.979 106.506 107.258 107.94C104.024 114.746 106.183 122.968 112.274 127.279C117.83 131.565 125.005 131.747 130.737 128.526C130.737 128.35 130.737 128.35 130.919 128.35C132.707 125.486 129.123 121.539 129.123 121.539C129.123 121.539 128.765 121.363 128.05 121.006C127.516 120.824 126.794 120.467 126.078 119.928C124.828 119.214 123.749 118.324 123.573 117.428C123.391 116.713 123.931 116.174 124.828 115.817C126.26 115.284 128.408 115.46 128.408 115.46C128.408 115.46 130.379 115.284 129.663 114.213L122.858 107.759H123.033C123.215 107.759 125.005 108.115 126.976 107.759C128.765 107.226 130.737 106.33 132.168 104.004V103.829C133.241 99.3431 127.334 93.4398 127.334 93.4398Z" fill="#444444"/>
<path fill-rule="evenodd" clip-rule="evenodd" d="M127.334 93.4398L125.364 94.3356C126.977 96.1222 130.562 100.609 129.664 104.186V104.362C128.232 106.506 126.619 107.401 125.006 107.94C125.546 107.94 126.261 107.94 126.977 107.759C128.766 107.226 130.738 106.33 132.169 104.004V103.829C133.242 99.3431 127.334 93.4398 127.334 93.4398Z" fill="#212121"/>
<path fill-rule="evenodd" clip-rule="evenodd" d="M129.123 121.539C123.573 124.239 116.749 123.882 111.739 119.928C108.871 117.967 107.081 115.284 106.008 112.245C105.097 117.967 107.439 123.882 112.273 127.278C117.647 131.565 125.004 131.747 130.736 128.526C130.736 128.35 130.736 128.35 130.918 128.35C132.707 125.486 129.123 121.539 129.123 121.539Z" fill="#212121"/>
<path fill-rule="evenodd" clip-rule="evenodd" d="M143.111 127.812L130.197 129.597L130.379 136.409L147.945 136.766L143.111 127.812Z" fill="#FBFBFB"/>
<path fill-rule="evenodd" clip-rule="evenodd" d="M136.469 191.172H146.871V187.417H136.469V191.172Z" fill="#333333"/>
<path opacity="0.8" fill-rule="evenodd" clip-rule="evenodd" d="M125.903 136.227C125.903 136.227 117.83 144.274 116.217 163.073H126.977L125.903 136.227Z" fill="#C8C8C8"/>
<path fill-rule="evenodd" clip-rule="evenodd" d="M167.839 239.862L158.347 191.172L136.111 187.957L138.095 174.534L165.51 178.645C168.379 179.178 170.902 181.502 171.26 184.56L176.27 239.862H167.839Z" fill="#444444"/>
<path fill-rule="evenodd" clip-rule="evenodd" d="M162.647 189.925L140.066 186.885L141.855 175.067L138.095 174.534L136.111 187.957L158.347 191.172L167.839 239.862L169.27 238.785L162.647 189.925Z" fill="#666666"/>
<path fill-rule="evenodd" clip-rule="evenodd" d="M189.716 240.752L173.764 194.036L135.213 189.925L136.645 176.32L180.036 181.146C182.717 181.502 185.046 183.489 185.78 186.165L199.391 240.752H189.716Z" fill="#444444"/>
<path fill-rule="evenodd" clip-rule="evenodd" d="M189.716 240.752H191.154L178.241 195.659C177.525 192.958 175.196 190.996 172.509 190.639L135.571 186.522L135.213 189.925L173.764 194.036L189.716 240.752Z" fill="#666666"/>
<path fill-rule="evenodd" clip-rule="evenodd" d="M180.036 181.146L150.813 177.93L150.455 180.97L185.228 184.736C184.155 182.756 182.183 181.502 180.036 181.146Z" fill="#999999"/>
<path fill-rule="evenodd" clip-rule="evenodd" d="M150.455 137.305C149.376 136.052 147.945 131.389 141.678 131.389H132.35C126.078 131.389 125.187 137.837 124.647 139.091C122.676 144.274 121.784 166.651 121.784 175.962C121.784 185.093 121.602 190.639 126.976 190.639H138.094C143.468 190.639 157.631 193.854 157.631 184.735C157.631 175.606 153.318 140.877 150.455 137.305Z" fill="#A6A6A6"/>
<path fill-rule="evenodd" clip-rule="evenodd" d="M145.44 132.104C144.542 131.565 143.286 131.39 141.855 131.39H132.351C127.516 131.39 125.903 135.143 125.188 137.662C126.261 136.051 127.516 133.89 130.197 133.351C131.993 133.176 139.526 132.636 141.321 132.461C142.753 132.104 144.009 132.279 145.258 132.461L145.44 132.104Z" fill="#C8C8C8"/>
<path fill-rule="evenodd" clip-rule="evenodd" d="M187.035 239.323C185.228 238.427 176.627 234.855 176.627 234.855C176.451 234.673 176.27 234.673 176.093 234.673C175.553 234.673 175.019 235.031 174.838 235.745C174.662 236.641 173.589 238.609 170.901 238.427L167.123 236.102L166.947 243.985C166.947 243.985 166.765 245.596 168.554 245.596L187.211 245.057C187.211 245.057 188.467 245.239 188.467 243.809L188.642 241.291C188.642 241.291 188.825 240.219 187.035 239.323Z" fill="#212121"/>
<path fill-rule="evenodd" clip-rule="evenodd" d="M210.332 239.142C208.361 238.07 198.674 234.316 198.674 234.316H198.492H197.958C197.418 234.316 196.885 234.673 196.885 235.212C196.885 235.212 196.885 235.388 196.703 235.388C196.703 236.284 195.448 238.252 192.585 238.252L188.642 235.745L188.466 243.985C188.466 243.985 188.284 245.596 190.08 245.596L210.508 245.057C210.508 245.057 211.763 245.414 211.763 243.809V241.109C211.763 241.109 212.121 240.219 210.332 239.142Z" fill="#212121"/>
<path fill-rule="evenodd" clip-rule="evenodd" d="M200.646 77.7028C200.106 77.7028 199.39 75.0266 198.493 75.0266C197.418 74.8449 195.988 70.0012 195.988 70.0012C195.806 69.469 195.988 68.5726 196.703 68.397C197.243 68.0397 197.958 68.2159 198.317 68.9299L201.732 75.7406C202.089 76.4559 201.732 77.1699 201.179 77.5273C201.004 77.5273 200.822 77.7028 200.646 77.7028Z" fill="#DADADA"/>
<path fill-rule="evenodd" clip-rule="evenodd" d="M197.244 76.6311H207.467V74.8433H197.244V76.6311Z" stroke="#FBFBFB"/>
<path fill-rule="evenodd" clip-rule="evenodd" d="M197.777 76.6312C187.275 112.091 166.583 130.494 145.439 132.279L143.826 146.059C191.154 142.13 205.493 83.4426 206.572 76.6312H197.777Z" fill="#A6A6A6"/>
<path fill-rule="evenodd" clip-rule="evenodd" d="M154.767 182.95C154.585 175.962 152.244 153.942 149.732 142.487C187.75 129.597 201.003 90.4112 203.344 76.6313H206.571C205.492 83.0848 192.942 130.493 152.601 144.274C155.125 155.728 157.63 177.749 157.63 184.735C157.63 188.846 154.943 190.457 151.528 190.997C151.528 190.997 154.767 189.204 154.767 182.95Z" fill="#C8C8C8"/>
<path fill-rule="evenodd" clip-rule="evenodd" d="M199.748 71.8055C199.032 71.8055 198.492 71.2665 198.492 70.5524L198.85 62.8508C199.032 62.1368 199.565 61.6033 200.287 61.6033C201.003 61.6033 201.536 62.3185 201.536 63.0326L201.003 70.5524C201.003 71.2665 200.463 71.8055 199.748 71.8055Z" fill="#EAEAEA"/>
<path fill-rule="evenodd" clip-rule="evenodd" d="M203.884 73.7734C203.162 73.7734 202.629 73.2343 202.629 72.5203L202.987 64.8187C202.987 64.1047 203.702 63.5656 204.418 63.7473C205.133 63.7473 205.673 64.2796 205.491 65.0004L205.133 72.7014C205.133 73.4161 204.6 73.949 203.884 73.7734Z" fill="#EAEAEA"/>
<path fill-rule="evenodd" clip-rule="evenodd" d="M205.85 74.3059C205.134 74.3059 204.6 73.7736 204.776 73.059L204.958 66.4294C205.134 65.7147 205.674 65.1763 206.389 65.1763C207.105 65.358 207.645 65.8903 207.645 66.605L207.287 73.059C207.105 73.7736 206.571 74.3059 205.85 74.3059Z" fill="#EAEAEA"/>
<path fill-rule="evenodd" clip-rule="evenodd" d="M201.731 73.7734C201.003 73.7734 200.463 73.0588 200.463 72.3447L201.003 64.1047C201.003 63.39 201.537 62.851 202.271 62.851C202.987 63.0321 203.526 63.5656 203.526 64.2796L203.162 72.5203C202.987 73.2343 202.447 73.7734 201.731 73.7734Z" fill="#EAEAEA"/>
<path fill-rule="evenodd" clip-rule="evenodd" d="M205.316 74.8449C202.629 74.8449 198.492 74.6632 198.492 74.6632V70.9094L207.287 71.4479C207.287 71.4479 207.821 74.8449 205.316 74.8449Z" fill="#EAEAEA"/>
<path fill-rule="evenodd" clip-rule="evenodd" d="M198.493 70.3586C198.493 70.3586 197.244 72.5205 198.135 74.6632H200.464L198.493 70.3586Z" fill="#EAEAEA"/>
<path fill-rule="evenodd" clip-rule="evenodd" d="M140.781 236.284C139.168 236.284 138.094 235.212 138.094 233.602V198.34C138.094 196.912 139.168 195.659 140.781 195.659C142.212 195.659 143.286 196.912 143.286 198.34V233.602C143.286 235.212 142.212 236.284 140.781 236.284Z" fill="#444444"/>
<path opacity="0.99" fill-rule="evenodd" clip-rule="evenodd" d="M157.273 190.639H142.571H124.114C119.795 190.639 116.393 194.036 116.393 198.341H164.976C164.976 194.036 161.574 190.639 157.273 190.639Z" fill="#999999"/>
<path fill-rule="evenodd" clip-rule="evenodd" d="M137.56 191.172H152.245C156.375 191.172 159.602 194.393 159.96 198.341H164.976C164.976 194.035 161.573 190.639 157.272 190.639H148.126H124.113C123.033 190.639 122.142 190.815 121.232 191.172H137.56Z" fill="#666666"/>
<path fill-rule="evenodd" clip-rule="evenodd" d="M155.659 240.038C154.943 240.038 154.227 239.68 153.694 239.142C150.455 235.569 145.615 233.427 140.781 233.427C135.752 233.427 131.094 235.569 127.692 239.142C126.794 240.219 125.004 240.395 123.931 239.323C122.858 238.427 122.676 236.641 123.749 235.569C128.05 230.744 134.321 228.043 140.781 228.043C147.228 228.043 153.318 230.744 157.63 235.569C158.704 236.641 158.527 238.427 157.454 239.323C156.914 239.862 156.375 240.038 155.659 240.038Z" fill="#444444"/>
<path fill-rule="evenodd" clip-rule="evenodd" d="M128.589 241.648C128.589 243.271 127.333 244.524 125.721 244.524C124.113 244.524 122.857 243.271 122.857 241.648C122.857 240.038 124.113 238.609 125.721 238.609C127.333 238.609 128.589 240.038 128.589 241.648Z" fill="#444444"/>
<path fill-rule="evenodd" clip-rule="evenodd" d="M158.527 241.648C158.527 243.271 157.272 244.524 155.658 244.524C154.051 244.524 152.777 243.271 152.777 241.648C152.777 240.038 154.051 238.609 155.658 238.609C157.272 238.609 158.527 240.038 158.527 241.648Z" fill="#444444"/>
<path fill-rule="evenodd" clip-rule="evenodd" d="M134.856 151.26H131.811C134.14 151.974 136.287 154.657 136.287 157.52V172.209C136.287 175.249 134.322 177.93 131.811 178.463C133.242 178.645 134.856 178.463 134.856 178.463C138.095 178.463 140.605 175.782 140.605 172.209V157.52C140.605 154.124 138.095 151.26 134.856 151.26Z" fill="#444444"/>
<path opacity="0.99" fill-rule="evenodd" clip-rule="evenodd" d="M137.365 172.209C137.365 175.782 134.854 178.463 131.633 178.463C131.633 178.463 128.588 178.288 126.793 178.288C125.186 178.288 121.959 178.463 121.959 178.463C118.902 178.463 116.215 175.782 116.215 172.209V157.52C116.215 154.125 118.902 151.26 121.959 151.26C121.959 151.26 124.646 151.618 126.793 151.618C129.123 151.618 131.633 151.26 131.633 151.26C134.854 151.26 137.365 154.125 137.365 157.52V172.209Z" fill="#999999"/>
<path fill-rule="evenodd" clip-rule="evenodd" d="M131.635 151.26C131.635 151.26 131.095 151.442 130.379 151.442C132.884 151.974 134.856 154.657 134.856 157.52V172.209C134.856 175.424 132.708 177.93 130.021 178.463H131.635C134.856 178.463 137.367 175.782 137.367 172.209V157.52C137.367 154.124 134.856 151.26 131.635 151.26Z" fill="#666666"/>
<path fill-rule="evenodd" clip-rule="evenodd" d="M124.29 195.658C123.034 195.658 122.143 194.75 122.143 193.497V165.222C122.143 163.969 123.034 163.073 124.29 163.073C125.363 163.073 126.26 163.969 126.26 165.222V193.497C126.26 194.75 125.363 195.658 124.29 195.658Z" fill="#444444"/>
</svg>
